# xmcd
#
# Track frame offsets:
#	150
#	14448
#	23774
#	33161
#	42375
#	45781
#	55011
#	65305
#	66407
#	75654
#	84157
#	92682
#	100912
#	109965
#	120825
#	130093
#	139188
#	144934
#	157218
#	170325
#	181407
#	192300
#	203167
#	212232
#	221711
#	231628
#	241517
#	251798
#	261910
#	276216
#	288938
#	302145
#	313998
#	326358
#	341773
#	344003
#
# Disc length: 4734 seconds
#
# Revision: 0
# Processed by: cddbd v1.5.2PL0 Copyright (c) Steve Scherf et al.
# Submitted via: audiograbber 1.83.01
#
DISCID=13127c24
DTITLE=Jerry Lee Lewis - Jerry Lee Lewis At Sun Records [CD 6)
DYEAR=2015
DGENRE=Rock and Roll
TTITLE0=High School Confidential (1.10) [false start and take] [mono]
TTITLE1=High School Confidential (1.11) [mono]
TTITLE2=High School Confidential (1.12) [mono]
TTITLE3=High School Confidential (1.13) [mono]
TTITLE4=High School Confidential (1.14) [2 false starts] [mono]
TTITLE5=High School Confidential (1.15) [mono]
TTITLE6=High School Confidential (2.1) [mono]
TTITLE7=Keep Your Hands Off Of It (1) [false start] [mono]
TTITLE8=Rockin' With Red [mono]
TTITLE9=Matchbox (1) [chat and undubbed master] [mono]
TTITLE10=Matchbox (2) [mono]
TTITLE11=Ubangi Stomp [master] [mono]
TTITLE12=Rock And Roll Ruby [mono]
TTITLE13=So Long I'm Gone [fragment and take] [mono]
TTITLE14=Sexy Ways (Carryin' On) (2.1) [mono]
TTITLE15=Sexy Ways (Carryin' On) (2.2) [mono]
TTITLE16=Fools Like Me (1) [fragment and 4 false starts] [mono]
TTITLE17=Fools Like Me (2) [mono]
TTITLE18=Fools Like Me (3) [undubbed master] [mono]
TTITLE19=Put Me Down (1) [mono]
TTITLE20=Put Me Down (2) [mono]
TTITLE21=Put Me Down (3) [mono]
TTITLE22=Put Me Down (4) [mono]
TTITLE23=Put Me Down (5) [chat and take] [mono]
TTITLE24=Put Me Down (6) [mono]
TTITLE25=Put Me Down (7) [master] [mono]
TTITLE26=I'm Throwing Rice [mono]
TTITLE27=Your Cheatin' Heart (1) [mono]
TTITLE28=Crazy Heart (1.1) [false start and take] [mono]
TTITLE29=Crazy Heart (1.2) [mono]
TTITLE30=Crazy Heart (1.3) [mono]
TTITLE31=Crazy Heart (1.4) [mono]
TTITLE32=Crazy Heart (1.5) [mono]
TTITLE33=Hello Hello Baby [master] [mono]
TTITLE34=Slippin' Around (1) [false start] [mono]
TTITLE35=Slippin' Around (2) [chat and take] [mono]
EXTD=
EXTT0=
EXTT1=
EXTT2=
EXTT3=
EXTT4=
EXTT5=
EXTT6=
EXTT7=
EXTT8=
EXTT9=
EXTT10=
EXTT11=
EXTT12=
EXTT13=
EXTT14=
EXTT15=
EXTT16=
EXTT17=
EXTT18=
EXTT19=
EXTT20=
EXTT21=
EXTT22=
EXTT23=
EXTT24=
EXTT25=
EXTT26=
EXTT27=
EXTT28=
EXTT29=
EXTT30=
EXTT31=
EXTT32=
EXTT33=
EXTT34=
EXTT35=
PLAYORDER=
